<svg version="1.1" viewBox="0 0 16 16" xmlns="http://www.w3.org/2000/svg">
 <path d="m2 0c-1.108 0-2 0.892-2 2v12c0 0.60798 0.27376 1.1455 0.69922 1.5117 0.6598-0.60637 1.3484-0.78341 1.8848-0.78516 0.41272-0.0013 0.66969 0.07301 0.81641 0.12305 0.00699-0.20134 0.093267-0.4757 0.56055-0.52734v-1.5957c-7.38e-4 -0.0011-0.00159-0.39875-0.082031-0.85742-0.07759-0.45983-0.24887-0.9689-0.5293-1.1777-0.68263-0.5248-1.208-1.1796-1.5117-2.002-0.16669-0.45234-0.24609-0.89979-0.24609-1.334 0-1.1867 0.58578-2.2662 1.5117-3.1055 0.28577-0.25717 0.65707-0.6574 1.0508-0.85156 0.08265-0.13338 0.38854-0.58986 0.88672-0.97852 0.03424-0.0988 0.37982-1.1332 0.62695-2.4199h-3.668zm3.8301 0c-0.19491 1.0328-0.45305 1.8979-0.57422 2.2578 0.044238-0.028829 0.095846-0.051122 0.14258-0.078125 0.0287-0.0573 0.56747-1.1846 1.5195-2.1797h-1.0879zm1.3066 0c-0.1512 0.15112-0.30624 0.30071-0.4375 0.45703-0.60995 0.72619-0.92538 1.3261-1.0566 1.5898 0.2944-0.13265 0.62921-0.21997 1.0039-0.22266 0.32978 0 0.68548 0.067929 1.0645 0.23047 0.32853 0.14254 0.62089 0.32852 0.88086 0.54102 0.02565-0.03341 0.2115-0.28139 0.55273-0.28516 0.17902-8.7e-4 0.38645 0.076691 0.60547 0.27539 0.595 0.546 1.6411 1.6281 1.6953 2.5918 0.37807 0.23102 0.78671 0.49361 1.1797 0.77734v0.00195c1.2758 0.9308 2.5815 2.1187 2.5957 3.3281 0 0.046321-0.0018 0.093444-0.0059 0.14062-0.1023 1.1618-0.70844 1.9229-1.5527 2.375-0.8434 0.45531-1.9189 0.62423-3.0078 0.66797-1.0813 0.04048-1.9153 0.05076-2.4902 0.33984-0.53208 0.2663-0.89071 0.76504-1.082 1.8398 0.47693 0.07442 0.51233 0.4118 0.49805 0.59375l0.056641 0.05078c0.21542 0.19912 0.46127 0.44563 0.70898 0.70703h5.6543c1.108 0 2-0.892 2-2v-12c0-1.108-0.892-2-2-2h-1.0938c-0.05719 0.042868-0.12439 0.074219-0.20117 0.074219-0.07681 0-0.14398-0.031352-0.20117-0.074219h-5.3672zm5.4863 0c0.02888 0.009113 0.05008 0.033203 0.08203 0.033203 0.03194 0 0.05307-0.02409 0.08203-0.033203zm-5.9669 2.7891c0.50324 0 1.0272 0.33364 1.4492 0.82031 0.00151 0.00173 0.00241 0.00406 0.00391 0.00586 0.00882 0.030322 0.012371 0.064454 0.019531 0.095703 0.014222 0.05964 0.028489 0.11727 0.037109 0.17969 2.363e-4 0.0018-3.915e-4 0.00414 0 0.00586 0.011369 0.08413 0.019531 0.17133 0.019531 0.25977 0 0.84908-0.53271 1.5371-1.1895 1.5371-0.65675 0-1.1875-0.68804-1.1875-1.5371-1e-7 -0.58149 0.24889-1.0884 0.61719-1.3496 0.07398-0.011376 0.14908-0.017578 0.23047-0.017578zm-0.36914 0.14062c-0.027626 0.024109-0.052333 0.053146-0.078125 0.080078 0.022966-0.026431 0.045874-0.052053 0.070312-0.076172 0.00219-7.201e-4 0.00462-0.00318 0.00781-0.00391zm0.41211 0.25c-0.27236 0-0.49219 0.26529-0.49219 0.59375 1e-7 0.32852 0.21983 0.5957 0.49219 0.5957 0.27212 0 0.49414-0.26717 0.49414-0.5957 0-0.32846-0.22202-0.59375-0.49414-0.59375zm1.4297 0.45703c0.53787 0.5347 0.95229 1.2766 1.0215 1.9844v0.00195c0.1305 1.35-0.54566 2.01-1.6641 2.1094-0.95796 0.08496-1.4831-0.10887-1.7871-0.47656 0.2953 0.22278 0.74732 0.35221 1.4414 0.35742 1.1024 0.0095 1.8281-0.57004 1.8281-1.9023 0-0.7131-0.34916-1.4969-0.83984-2.0742z"/>
</svg>
