<?xml version="1.0" encoding="UTF-8"?>
<svg version="1.1" viewBox="0 0 1024 368" xmlns="http://www.w3.org/2000/svg">
 <defs>
  <linearGradient id="a" x2="1024" y1="184" y2="184" gradientUnits="userSpaceOnUse">
   <stop stop-color="#9248c8" offset="0"/>
   <stop stop-color="#005c99" offset="1"/>
  </linearGradient>
 </defs>
 <rect width="1024" height="368" fill="url(#a)" stroke-linecap="round" stroke-linejoin="round" stroke-width=".43326"/>
 <g stroke-width="5.55">
  <path d="m276.94 144.74v-12.291h1.3755c-2.0077-0.94164-4.239-1.4837-6.5985-1.4837h-79.77c-8.6076 0-15.613 7.0053-15.613 15.613v79.767c0 8.6121 7.0053 15.617 15.613 15.617h79.77c8.607 0 15.613-7.0053 15.613-15.617v-79.767c0-0.62343-0.0473-1.2343-0.11802-1.8383z" opacity=".5"/>
  <path d="m269.88 239.5h-79.773c-8.6082 0-15.614-7.0053-15.614-15.617v-79.767c0-8.6082 7.0053-15.614 15.614-15.614h79.773c8.607 0 15.612 7.0053 15.612 15.614v79.767c0 8.6109-7.0053 15.617-15.612 15.617" fill="#fff"/>
  <path d="m280.81 223.88c0 6.0375-4.8939 10.931-10.93 10.931h-79.773c-6.0369 0-10.93-4.8933-10.93-10.931v-79.773c0-6.0375 4.8939-10.931 10.93-10.931h79.773c6.0369 0 10.93 4.8933 10.93 10.931z" fill="#90449e"/>
  <path d="m291.1 145.37c-7.6596-5.5362-15.295-9.7371-18.15-11.25 2.2997 5.3235 3.1494 9.5019 3.1752 9.5352-0.0165-2e-3 -2.3195-5.0988-5.6793-11.326-3.3549-6.2388-8.7054-13.262-16.584-16.629-2.6735-1.1448-5.1228-1.6063-7.3644-1.6063-8.1897-0.0285-13.977 6.3294-16.338 9.5745-0.78726 1.0714-1.1712 1.7481-1.1712 1.7517l-0.16383 0.28803-0.30045 0.13536c-2.5322 1.1197-5.4774 4.1928-7.7961 6.3159-6.7806 6.1518-10.913 13.884-10.913 22.281 0 3.081 0.55518 6.2616 1.7553 9.5133 2.1867 5.9085 5.9247 10.583 10.91 14.423 5.6961 4.6155 5.3769 17.106 5.4708 17.204v13.199c0.13179 0.13776 0.24666 0.26844 0.39528 0.41772 0.42816 0.42579 0.92598 0.88281 1.5016 1.3431 2.1585 1.7294 5.2665 3.4266 9.1488 3.4266 2.4674-2e-3 5.2725-0.68448 8.4123-2.528l0.18315 0.0228c1.3856-9.5052 4.5687-14.568 9.6354-17.069 5.0952-2.5041 11.655-2.4812 19.897-2.8195 8.1846-0.31782 16.154-1.6225 22.153-4.8729 5.9937-3.2691 10.064-8.3124 10.842-16.584 0.0246-0.2955 0.0316-0.5937 0.0316-0.89064 0.11403-7.7025-9.3513-16.915-19.054-23.853" fill="#f6bd6d"/>
  <path d="m210.35 234.87 12.444-22.659s-21.618-9.4836-32.55 22.399v0.26166z"/>
  <path d="m257.42 125.48c0.3222 0.79365 0.55593 1.6489 0.7431 2.5287-0.1005-0.77034-0.24741-1.5192-0.45558-2.2324-0.098-0.0958-0.18888-0.2025-0.28767-0.29661"/>
  <path d="m265.69 141.16c-0.52701-5.4246-3.7041-11.118-7.8267-15.216 3.7587 4.422 6.4254 10.427 6.4254 15.89 0 10.206-5.5434 14.647-13.988 14.575-5.3169-0.0397-8.7846-1.0426-11.047-2.7492 2.3291 2.8166 6.3516 4.308 13.69 3.6573 8.5704-0.76158 13.753-5.8071 12.748-16.156"/>
  <path d="m243.76 120.53c-0.0246 6e-3 -0.0473 0.0168-0.064 0.0228-0.1872 0.1848-0.3648 0.38559-0.54069 0.58803 0.20004-0.20886 0.39447-0.42339 0.60894-0.60966"/>
  <path d="m257.69 125.73c4e-3 0.0168 6e-3 0.0285 8e-3 0.0461 0.0561 0.0508 0.10608 0.11064 0.15903 0.16347-0.0561-0.0723-0.11082-0.1446-0.1704-0.21282" fill="#fff"/>
  <path d="m257.86 125.94c-0.0561-0.0594-0.10521-0.1107-0.15909-0.16353 0.20823 0.71424 0.35514 1.4627 0.45627 2.2325 0.0811 0.62505 0.13974 1.2607 0.13974 1.915 0 6.5046-4.0779 11.777-9.1089 11.777s-9.1095-5.2725-9.1095-11.777c0-3.5004 1.1928-6.6267 3.0681-8.7837 0.17604-0.2025 0.35358-0.40335 0.54069-0.58746 0.35754-0.35163 0.73029-0.678 1.1262-0.9585-7.1079 1.0991-9.8076 8.8797-9.8076 18.333 0 6.6855-0.0561 12.487 4.2429 15.728 2.2619 1.7067 5.73 2.7053 11.048 2.7499 8.445 0.0723 13.988-4.3692 13.988-14.575 0-5.4618-2.6669-11.468-6.4254-15.89" fill="#fff"/>
  <path d="m240.08 129.93c0 6.5043 4.0785 11.777 9.1095 11.777 5.0307 0 9.1089-5.2725 9.1089-11.777 0-1.4806-0.22089-2.8916-0.60735-4.1967-3.2328-3.7281-7.2462-6.2787-11.101-6.2787-0.62343 0-1.2079 0.0594-1.7745 0.14628-2.8213 2.001-4.7352 5.8752-4.7352 10.33"/>
  <path d="m250.69 127c0 2.5166-1.691 4.5567-3.7755 4.5567-2.0864 0-3.7755-2.0402-3.7755-4.5567 0-2.5161 1.6892-4.5567 3.7755-4.5567 2.0846 0 3.7755 2.0408 3.7755 4.5567" fill="#fff"/>
  <path d="m225.26 207.98 2e-3 -2e-3c-1e-3 -1e-3 -2e-3 -1e-3 -2e-3 -1e-3z" fill="#231e1f"/>
  <path d="m249.29 212.09c0.064-0.0397 0.13257-0.0809 0.19998-0.12507l-0.86478-1.2932c-0.41211 0.27483-0.81597 0.52329-1.2169 0.75924l1.2596 0.14805s0.22977 0.18468 0.62184 0.5106" fill="#231e1f"/>
  <path d="m226.55 208.98 1.8004 0.21342-0.39597-0.0461z" fill="#f6bd6d"/>
  <path d="m271.6 131.18c0.9651 0.49161 4.9863 2.5665 10.016 5.565-0.98493-6.1722-8.1282-13.915-12.372-17.7-1.4843-1.3329-2.6656-1.6964-3.5904-1.6994-0.92364-3e-3 -1.6712 0.38271-2.2048 0.7881-0.39207 0.29778-0.63303 0.57855-0.73506 0.70692l-0.0819 0.1779c3.9984 3.621 6.8994 8.0553 8.9679 12.161" fill="#f6bd6d"/>
  <path d="m264.42 192.71s-9.1089-7.5477-20.82-3.9036c0 0 15.617-0.52095 17.438 5.2038z"/>
 </g>
 <path d="m222 51.779c0 1.3652-1.107 2.4728-2.4728 2.4728-1.3646 0-2.4722-1.1076-2.4722-2.4728 0-1.3647 1.1075-2.4722 2.4722-2.4722 1.3658 0 2.4728 1.1076 2.4728 2.4722" fill="#5a222f" stroke="#000" stroke-width="1.75"/>
 <path d="m295.39 96.022c0 1.3653-1.1068 2.4728-2.4716 2.4728-1.3653 0-2.4721-1.1075-2.4721-2.4728 0-1.3647 1.1068-2.4722 2.4721-2.4722 1.3647 0 2.4716 1.1076 2.4716 2.4722" fill="#5a222f" stroke="#000" stroke-width="1.75"/>
 <g stroke-width="5.55">
  <path d="m252.71 213.56c0-1.2794-0.93918-2.3178-2.0984-2.3178-0.77367 0-1.441 0.4665-1.8057 1.1544-3.5676 2.2343-6.867 3.129-9.786 3.129h-0.0165c-6.3066-0.0285-10.636-3.9174-12.58-6.0978l0.0811-0.77124-1.2691 0.48699-1.6586 0.87852-0.53742 0.34254-0.29241 1.4633 0.42987 0.86952-0.0479 0.0593c0.73512 0.79212 1.9788 2.0179 3.6903 3.2595 2.8639 2.0786 6.9414 4.1325 11.84 4.1295 3.6243-4e-3 7.728-0.81009 12.225-3.948 1.0246-0.15429 1.8298-1.4614 1.8298-2.6356" fill="#fff"/>
  <path d="m310.12 170.11c-0.77766 8.2719-4.8492 13.315-10.842 16.584-5.9991 3.2499-13.969 4.5537-22.153 4.8723-8.2401 0.33909-14.801 0.31554-19.895 2.8195-5.0676 2.5011-8.2503 7.5636-9.636 17.069l-0.18234-0.0228c-3.1398 1.843-5.9448 2.525-8.4123 2.5281-3.8832 0-6.9909-1.6976-9.1494-3.4272-0.57597-0.46014-1.0727-0.91755-1.5011-1.343l-1.8004-0.21231 1.4043 0.16521 0.39603 0.0461c-0.14943-0.14916-0.26355-0.27996-0.39603-0.41766v-13.198c-0.094-0.0974 0.22575-12.588-5.4708-17.204-4.9839-3.84-8.7225-8.5137-10.91-14.422-1.2-3.2517-1.7546-6.4326-1.7546-9.513 0-8.3973 4.1325-16.13 10.913-22.281 2.3189-2.1225 5.2641-5.1963 7.7961-6.3159l0.30045-0.13488 0.16389-0.28803c0-3e-3 0.384-0.68046 1.1706-1.7517 2.3616-3.2451 8.1492-9.606 16.338-9.5745 2.242 0 4.6914 0.46131 7.3638 1.6069 7.8777 3.3675 13.229 10.39 16.584 16.629 3.3591 6.2268 5.6604 11.323 5.679 11.326-0.0246-0.0285-0.87498-4.212-3.1746-9.5352 2.8544 1.5119 10.49 5.7132 18.15 11.249 9.7026 6.9381 19.168 16.15 19.054 23.854 0 0.29661-8e-3 0.59454-0.0316 0.89001m-58.281 44.721c-0.0964 0.25641-0.23619 0.48876-0.40575 0.67401-0.88869 0.9627-2.2504 1.5186-3.4083 2.0786-2.0005 0.9651-3.954 1.8923-6.1617 2.2649-1.054 0.1773-2.1465 0.29265-3.2172 0.2949-4.8981 3e-3 -8.9757-2.051-11.84-4.1295-1.6422-1.1916-2.8405-2.3579-3.5856-3.1506-8e-3 -0.0397-0.0165-0.0723-0.0246-0.10848-0.63309-2.4458 2.3068-3.2619 3.1182-3.4392 1.8947 2.1585 6.2688 6.1794 12.695 6.21 2.8483 0 5.7249-0.82512 8.202-2.2096 0.78567-0.43716 1.6472-0.91038 2.3406-1.4866 0.13734-0.11481 0.88635 0.29718 1.0083 0.36432 0.39447 0.2151 0.76404 0.49623 1.0594 0.83763 0.42741 0.48933 0.44103 1.2062 0.2178 1.801m10.862-95.982c0.10206-0.12846 0.34299-0.40842 0.73512-0.70692 0.53427-0.40557 1.2811-0.7914 2.2053-0.78816 0.9243 3e-3 2.1063 0.3666 3.5898 1.6994 4.2435 3.7854 11.386 11.528 12.372 17.7-5.0289-2.9986-9.0504-5.0724-10.016-5.565-2.0689-4.1061-4.9695-8.5404-8.9679-12.161zm29.589 24.871c-3.0105-2.1735-6.1395-4.2006-9.0354-5.9703-0.41532-7.3821-8.4195-15.674-12.977-19.856-1.6778-1.5221-3.2646-2.1087-4.6362-2.102-2.6139 0.0285-4.041 1.9272-4.2375 2.1831-1.9915-1.6278-4.2255-3.054-6.7422-4.1457-2.903-1.2451-5.6388-1.7709-8.1648-1.7709-11.303 0.0804-17.942 10.207-19.094 12.065-3.0159 1.4873-5.8521 4.5591-8.0409 6.5292-7.0929 6.4293-11.578 14.694-11.578 23.784 0 3.3261 0.60336 6.7512 1.8802 10.216 2.3267 6.2994 6.3453 11.309 11.575 15.329 2.1482 1.5997 3.4674 5.5128 4.0617 9.0357 0.61617 3.5136 0.61296 6.5508 0.6186 6.5592v12.224c-5.6454 0.62382-4.1985 5.6856-4.1985 5.6856l0.0964 0.15267c-4e-3 1e-3 -7e-3 2e-3 -8e-3 4e-3 1.977 2.1723 8.091 8.0328 16.838 8.0625h0.0165c4.2303 0 9.0333-1.4801 14.127-5.3217 0.34218-0.18708 0.65712-0.47619 0.65712-0.47619l8e-3 -0.0168c0.0316-0.0228 0.064-0.0397 0.0949-0.0723-8e-3 -6e-3 -0.0246-0.0228-0.0316-0.0285l0.0165-0.0285s1.3286-4.677-3.7041-5.4624c1.4656-8.2329 4.2195-12.044 8.2956-14.084 4.4043-2.2144 10.79-2.3009 19.074-2.6111 8.3412-0.33504 16.576-1.6296 23.037-5.1174 6.4674-3.4632 11.114-9.2874 11.898-18.187 0.0316-0.36144 0.0473-0.71658 0.0473-1.0714-0.10848-9.2643-10.12-18.369-19.893-25.499"/>
  <path d="m268.36 234.87c-1.9566-6.4476-9.6273-14.313-14.801-19.059-5.3799 4.287-10.449 5.8881-14.891 5.8881h-0.0165c-8.7471-0.0285-14.86-5.8908-16.837-8.0625-10.905 4.9563-16.38 17.928-17.625 21.233z" fill="#c7584d"/>
  <path d="m205.05 234.81c0.58083-1.497 1.8118-4.3845 3.7779-7.6218 2.781-4.5861 7.0143-9.7938 12.807-12.602 2.3748 2.4873 8.4246 7.8507 17.016 7.896h0.0165c4.4835 3e-3 9.5511-1.572 14.852-5.6451 5.0466 4.6539 12.103 12.102 14.017 17.973h1.6143c-2.0095-6.8298-9.822-14.728-15.064-19.573l-0.49155-0.4509-0.52452 0.41649c-5.2683 4.1958-10.15 5.7159-14.403 5.7189h-0.0165c-8.3751-0.0168-14.349-5.6961-16.259-7.8069l-0.38559-0.42111-0.51657 0.23292c-11.519 5.2836-16.996 18.882-18.106 21.883z"/>
 </g>
 <g fill="#fff" stroke-width="3">
  <path d="m388.16 185.33q10.508 1.924 16.872 7.548 6.5121 5.6241 6.5121 17.168 0 15.984-11.248 22.792-11.248 6.66-31.524 6.66h-30.783v-102.27h26.788q42.327 0 42.327 26.048 0 9.0279-5.4759 14.8-5.4759 5.6241-13.468 7.2519zm-30.636-33.744v27.676h11.988q8.1399 0 12.876-3.552 4.7361-3.6999 4.7361-10.804 0-7.4001-5.0319-10.36-4.884-2.96-15.392-2.96zm11.396 73.26q10.804 0 16.428-3.2559 5.772-3.2559 5.772-12.284 0-8.7321-5.4759-12.58-5.328-3.8481-14.652-3.8481h-13.468v31.968z"/>
  <path d="m490.13 239.5h-16.428l-1.036-10.952q-4.44 6.66-10.212 9.9159t-13.764 3.2559q-10.508 0-16.132-6.3639-5.6241-6.5121-5.6241-17.908v-56.241h18.944v53.871q0 6.8079 2.22 9.6201 2.22 2.664 7.2519 2.664 9.324 0 15.836-11.1v-55.056h18.944z"/>
  <path d="m580.7 165.35q-7.548 2.664-22.644 2.664 7.2519 3.2559 10.656 8.1399 3.552 4.7361 3.552 11.988 0 7.6959-3.8481 13.616-3.6999 5.9199-10.952 9.324-7.104 3.4041-16.724 3.4041-5.328 0-9.324-1.184-3.2559 2.22-3.2559 5.772 0 5.4759 9.4719 5.4759h11.988q8.5839 0 14.948 2.812 6.5121 2.812 10.064 7.992 3.552 5.0319 3.552 11.396 0 11.84-10.064 18.352-10.064 6.66-29.008 6.66-13.616 0-21.46-2.812-7.6959-2.812-10.952-8.1399t-3.2559-13.616h17.02q0 4.1439 1.48 6.5121 1.628 2.368 5.6241 3.552 4.1439 1.184 11.84 1.184 10.804 0 15.244-2.664t4.44-7.6959q0-4.44-3.4041-6.9561-3.4041-2.368-9.9159-2.368h-11.84q-11.1 0-16.724-4.2921t-5.6241-10.804q0-4.1439 2.368-7.992 2.516-3.8481 6.8079-6.5121-7.104-3.6999-10.508-9.0279-3.2559-5.4759-3.2559-13.024 0-8.436 4.1439-14.8t11.396-9.768q7.4001-3.552 16.872-3.552 12.432 0.29601 19.98-1.776 7.6959-2.22 16.576-6.9561zm-40.995 6.5121q-6.3639 0-10.064 4.1439-3.552 3.996-3.552 10.804 0 7.104 3.6999 11.248t10.212 4.1439q6.8079 0 10.36-3.996 3.552-4.1439 3.552-11.544 0-14.8-14.208-14.8z"/>
  <path d="m642.56 174.82-37.887 49.875h38.628l-1.924 14.8h-58.461v-13.616l38.037-49.875h-34.779v-14.8h56.388z"/>
  <path d="m676.01 239.5h-18.944v-78.291h18.944zm-9.6201-117.96q5.328 0 8.5839 3.4041 3.4041 3.2559 3.4041 8.1399t-3.4041 8.1399q-3.2559 3.2559-8.5839 3.2559-5.1801 0-8.5839-3.2559-3.2559-3.2559-3.2559-8.1399t3.2559-8.1399q3.4041-3.4041 8.5839-3.4041z"/>
  <path d="m716.42 241.72q-9.0279 0-14.06-5.1801-5.0319-5.328-5.0319-14.948v-91.761l18.944-2.072v93.24q0 2.812 1.036 4.1439 1.036 1.332 3.4041 1.332t4.2921-0.74001l4.1439 13.32q-5.9199 2.664-12.728 2.664z"/>
  <path d="m760.37 241.72q-9.0279 0-14.06-5.1801-5.0319-5.328-5.0319-14.948v-91.761l18.944-2.072v93.24q0 2.812 1.036 4.1439 1.036 1.332 3.4041 1.332 2.368 0 4.2921-0.74001l4.1439 13.32q-5.9199 2.664-12.728 2.664z"/>
  <path d="m843.56 218.78q0 4.5879 1.332 6.8079 1.48 2.072 4.5879 3.2559l-3.996 12.58q-6.66-0.59199-10.952-3.2559-4.1439-2.664-6.3639-8.1399-3.996 5.9199-10.064 8.88-5.9199 2.812-13.32 2.812-11.692 0-18.5-6.66-6.8079-6.66-6.8079-17.464 0-12.728 9.1761-19.388 9.324-6.8079 26.492-6.8079h9.768v-4.44q0-7.548-3.552-10.508-3.4041-3.108-11.1-3.108-8.5839 0-20.72 4.1439l-4.44-12.876q14.652-5.6241 28.416-5.6241 30.045 0 30.045 26.936zm-33.744 9.1761q9.6201 0 15.096-9.6201v-15.836h-7.8441q-18.352 0-18.352 13.616 0 5.6241 2.812 8.7321t8.2881 3.108z"/>
 </g>
 <path d="m237.35 115.29c7.677-14.163 26.438-41.514 54.655-20.301" fill="none" stroke="#000" stroke-width="1.75"/>
 <path d="m234.62 117.24c5.9152-20.319 16.842-59.761-12.455-65.086" fill="none" stroke="#000" stroke-width="1.75"/>
</svg>
