<?xml version="1.0" encoding="UTF-8"?>
<!-- Created with Inkscape (http://www.inkscape.org/) -->
<svg width="3840" height="1080" version="1.1" viewBox="0 0 3840 1080" xmlns="http://www.w3.org/2000/svg">
 <rect width="3840" height="1080" fill="#33d17a"/>
 <g fill="#2ec27e">
  <g stroke="#26a269" stroke-linecap="round" stroke-linejoin="round" stroke-width="5">
   <path d="m1898.6 904.77v-510.46h106.03v510.46"/>
   <path d="m3467.2 904.77v-510.46h-58.839v510.46"/>
   <path d="m1198 904.77v-510.46h106.03v510.46"/>
   <path d="m2372.6 904.77v-510.46h118.09v510.46"/>
  </g>
  <rect y="907.27" width="3840" height="172.73"/>
 </g>
 <g stroke="#26a269">
  <g stroke-linecap="round" stroke-linejoin="round" stroke-width="5">
   <path d="m984.65 904.77v-510.46h-83.195v510.46" fill="#26a269"/>
   <path d="m211.47 904.77v-510.46h106.03v510.46" fill="#26a269"/>
   <path d="m2051 904.77v-510.46h106.03v510.46" fill="#33d17a"/>
   <path d="m2866.3 904.77v-510.46h-58.839v510.46" fill="#26a269"/>
   <path d="m0 907.27h3840" fill="none"/>
  </g>
  <path d="m1958.1 47.693-208.97 694.26h409.73l-200.76-694.26z" fill="#2ec27e" stroke-width="4"/>
  <path d="m1836.4 904.77v-510.46h-83.195v510.46" fill="#33d17a" stroke-linecap="round" stroke-linejoin="round" stroke-width="5"/>
  <path d="m1607.6 904.77v-510.46h106.03v510.46" fill="#2ec27e" stroke-linecap="round" stroke-linejoin="round" stroke-width="5"/>
  <path d="m1664.5 83.502-197.24 565.72h386.73l-189.49-565.72z" fill="#2ec27e" stroke-width="3.508"/>
  <path d="m1418.7 174.46-170.67 567.04h334.65z" fill="#26a269" stroke-width="3.267"/>
  <path d="m1525.1 904.77v-510.46h118.09v510.46" fill="#33d17a" stroke-linecap="round" stroke-linejoin="round" stroke-width="5"/>
  <path d="m1362 904.77v-510.46h118.09v510.46" fill="#26a269" stroke-linecap="round" stroke-linejoin="round" stroke-width="5"/>
  <path d="m942.29 69.428-244.1 810.99h478.62l-234.52-810.99z" fill="#26a269" stroke-width="4.6725"/>
  <g stroke-linecap="round" stroke-linejoin="round" stroke-width="5">
   <path d="m637.37 904.77v-510.46h106.03v510.46" fill="#2ec27e"/>
   <path d="m779.14 904.77v-510.46h106.03v510.46" fill="#2ec27e"/>
   <path d="m549.4 904.77v-510.46h118.09v510.46" fill="#33d17a"/>
  </g>
  <path d="m2109.1 95.666-232.04 725.54h454.96l-222.93-725.54z" fill="#33d17a" stroke-width="4.3089"/>
  <path d="m2844.5 52.832-210.14 710.87h412.03l-201.89-710.87z" fill="#26a269" stroke-width="4.0589"/>
  <path d="m2953.9 904.77v-510.46h106.03v510.46" fill="#2ec27e" stroke-linecap="round" stroke-linejoin="round" stroke-width="5"/>
  <path d="m2435.5 182.51-195.84 660.4h383.99l-188.15-660.4z" fill="#2ec27e" stroke-width="3.7767"/>
  <path d="m2578.2 904.77v-510.46h106.03v510.46" fill="#33d17a" stroke-linecap="round" stroke-linejoin="round" stroke-width="5"/>
  <path d="m2312.1 904.77v-510.46h-58.839v510.46" fill="#33d17a" stroke-linecap="round" stroke-linejoin="round" stroke-width="5"/>
  <path d="m3452.6 64.75-229.57 698.96h450.13l-220.56-698.96z" fill="#2ec27e" stroke-width="4.2067"/>
 </g>
 <g fill="#33d17a" stroke="#26a269">
  <path d="m3557.6 904.77v-510.46h118.09v510.46" stroke-linecap="round" stroke-linejoin="round" stroke-width="5"/>
  <path d="m1792.7 210.43-132.08 438.79h258.96l-126.89-438.79z" stroke-width="2.5281"/>
  <path d="m1587.1 148.34-159.74 530.7h313.21l-153.47-530.7z" stroke-width="3.0577"/>
 </g>
 <g fill="#2ec27e" stroke="#26a269">
  <path d="m825.17 130.5-158.81 527.63h311.39l-152.58-527.63z" stroke-width="3.04"/>
  <path d="m1253.4 9.002-244.45 812.14h479.3l-234.85-812.14z" stroke-width="4.6792"/>
  <path d="m3006.3 174.74-151.8 504.33h297.64l-145.84-504.33z" stroke-width="2.9057"/>
 </g>
 <g fill="#33d17a" stroke="#26a269">
  <path d="m3087.8 904.77v-510.46h106.03v510.46" stroke-linecap="round" stroke-linejoin="round" stroke-width="5"/>
  <g>
   <path d="m2289.3 65.502-184.65 613.48h362.06l-177.4-613.48z" stroke-width="3.5346"/>
   <path d="m3610.5 182.3-197.11 557.04h386.49l-189.37-557.04z" stroke-width="3.4799"/>
   <path d="m2638.7 77.195-209.6 662.14h410.97l-201.37-662.14z" stroke-width="3.9123"/>
  </g>
  <path d="m1025.4 904.77v-510.46h118.09v510.46" stroke-linecap="round" stroke-linejoin="round" stroke-width="5"/>
  <path d="m1096.7 95.523-195.27 669.61h382.88l-187.61-669.61z" stroke-width="3.7974"/>
 </g>
 <path d="m275.01 114.56-206.53 725.59h404.95l-198.42-725.59z" fill="#26a269" stroke="#26a269" stroke-width="4.0653"/>
 <g fill="#2ec27e" stroke="#26a269">
  <path d="m400.89 904.77v-510.46h106.03v510.46" stroke-linecap="round" stroke-linejoin="round" stroke-width="5"/>
  <path d="m720.25 182.19-185.4 534.98h363.51l-178.12-534.98z" stroke-width="3.3073"/>
  <path d="m455 67.867-196.52 652.9h385.32l-188.8-652.9z" stroke-width="3.7617"/>
 </g>
 <path d="m623.12 44.277-221.87 741.46h435.03l-213.16-741.46z" fill="#33d17a" stroke="#26a269" stroke-width="4.2594"/>
 <path d="m3143.8 64.34-170.95 567.96h335.2z" fill="#33d17a" stroke="#26a269" stroke-width="3.2724"/>
</svg>
